<svg xmlns="http://www.w3.org/2000/svg" viewBox="0 0 54 54" id="instagram">
  <defs>
    <radialGradient id="a" cx="9.29" cy="47.38" r="58.98" gradientTransform="matrix(.97 0 0 .97 2.83 5.75)" gradientUnits="userSpaceOnUse">
      <stop offset="0" stop-color="#fbe18a"></stop>
      <stop offset=".21" stop-color="#fcbb45"></stop>
      <stop offset=".38" stop-color="#f75274"></stop>
      <stop offset=".52" stop-color="#d53692"></stop>
      <stop offset=".74" stop-color="#8f39ce"></stop>
      <stop offset="1" stop-color="#5b4fe9"></stop>
    </radialGradient>
  </defs>
  <g>
    <path fill="url(#a)" d="M19.4,27.3a7.9,7.9,0,1,1,7.9,7.9,7.89,7.89,0,0,1-7.9-7.9Zm-4.27,0A12.17,12.17,0,1,0,27.3,15.12,12.17,12.17,0,0,0,15.13,27.3Zm22-12.66A2.84,2.84,0,1,0,40,11.8a2.85,2.85,0,0,0-2.84,2.84Zm-19.39,32a13.1,13.1,0,0,1-4.4-.81A7.47,7.47,0,0,1,10.59,44a7.37,7.37,0,0,1-1.77-2.72A13.11,13.11,0,0,1,8,36.87c-.11-2.49-.14-3.24-.14-9.57s0-7.08.14-9.58a13,13,0,0,1,.82-4.4,7.8,7.8,0,0,1,4.5-4.5A13,13,0,0,1,17.72,8c2.5-.11,3.25-.14,9.58-.14s7.08,0,9.58.14a13.09,13.09,0,0,1,4.4.82A7.37,7.37,0,0,1,44,10.59a7.47,7.47,0,0,1,1.78,2.73,13.1,13.1,0,0,1,.81,4.4c.12,2.5.14,3.25.14,9.58s0,7.08-.14,9.57a13.18,13.18,0,0,1-.81,4.41,7.95,7.95,0,0,1-4.5,4.5,13.16,13.16,0,0,1-4.4.81c-2.5.12-3.25.14-9.58.14s-7.08,0-9.58-.14Zm-.2-42.85a17.17,17.17,0,0,0-5.75,1.1,11.52,11.52,0,0,0-4.2,2.73,11.52,11.52,0,0,0-2.73,4.2,17.17,17.17,0,0,0-1.1,5.75c-.12,2.53-.15,3.34-.15,9.78s0,7.24.15,9.77a17.12,17.12,0,0,0,1.1,5.75A11.52,11.52,0,0,0,7.57,47a11.68,11.68,0,0,0,4.2,2.74,17.69,17.69,0,0,0,5.75,1.1c2.53.11,3.34.14,9.78.14s7.24,0,9.77-.14a17.63,17.63,0,0,0,5.75-1.1,12.18,12.18,0,0,0,6.94-6.94,17.63,17.63,0,0,0,1.1-5.75c.11-2.53.14-3.34.14-9.77s0-7.25-.14-9.78a17.69,17.69,0,0,0-1.1-5.75A11.68,11.68,0,0,0,47,7.57a11.52,11.52,0,0,0-4.2-2.73,17.12,17.12,0,0,0-5.75-1.1c-2.53-.12-3.34-.15-9.77-.15s-7.25,0-9.78.15Z"></path>
  </g>
</svg>
